<?xml version="1.0" encoding="utf-8"?>
<!-- Generator: Adobe Illustrator 23.0.2, SVG Export Plug-In . SVG Version: 6.00 Build 0)  -->
<svg version="1.1" id="图层_1" xmlns="http://www.w3.org/2000/svg" xmlns:xlink="http://www.w3.org/1999/xlink" x="0px" y="0px"
	 viewBox="0 0 1024 1024" style="enable-background:new 0 0 1024 1024;" xml:space="preserve">
<style type="text/css">
	.st0{fill:#509ff1;}
	.st1{opacity:0.1;fill:#FFFFFF;}
	.st2{fill:#FFFFFF;}
	.st3{opacity:0.3;fill:#FFFFFF;}
</style>
<g>
	<path class="st0" d="M678.29,888.62c-91.85,91.2-240.75,91.2-332.59,0l-213-211.49c-91.85-91.2-91.85-239.06-0.01-330.25l213-211.5
		c91.85-91.2,240.75-91.19,332.6,0.01l213,211.49c91.84,91.2,91.84,239.05,0,330.24L678.29,888.62z"/>
	<path class="st1" d="M143.01,347.26l202.31-200.88c91.84-91.2,240.75-91.19,332.59,0l207.65,206.18
		c91.85,91.2,81.15,239.05-10.7,330.25L143.01,347.26z"/>
	<path class="st2" d="M566.99,562.62c-24.59,0-47.24,8.34-65.29,22.29l-60.84-49.27c12.19-15.13,19.5-34.3,19.5-55.14
		c0-9.06-1.38-17.8-3.94-26.03l95.61-41.18c15.07,16.42,36.76,26.74,60.84,26.74c45.41,0,82.35-36.7,82.35-81.81
		c0-45.12-36.94-81.83-82.35-81.83c-45.41,0-82.35,36.71-82.35,81.83c0,6.38,0.76,12.58,2.16,18.54l-94.97,40.9
		c-0.88,0.38-1.71,0.83-2.51,1.31c-16.2-16.6-38.87-26.95-63.93-26.95c-49.12,0-89.08,39.69-89.08,88.47
		c0,48.78,39.96,88.46,89.08,88.46c13.4,0,26.11-2.97,37.52-8.26c1.25,2.28,2.94,4.36,5.09,6.1l60.66,49.13
		c-8.97,15.51-14.13,33.45-14.13,52.58c0,58.38,47.81,105.88,106.58,105.88c58.77,0,106.59-47.5,106.59-105.88
		C673.58,610.12,625.77,562.62,566.99,562.62z"/>
	<path class="st3" d="M587.59,583.22c-24.59,0-47.24,8.34-65.29,22.29l-60.84-49.27c12.19-15.13,19.5-34.3,19.5-55.14
		c0-9.06-1.38-17.8-3.94-26.03l95.61-41.18c15.07,16.42,36.76,26.74,60.84,26.74c45.41,0,82.35-36.7,82.35-81.81
		c0-45.12-36.94-81.83-82.35-81.83c-45.41,0-82.35,36.71-82.35,81.83c0,6.38,0.76,12.58,2.16,18.54l-94.97,40.9
		c-0.88,0.38-1.71,0.83-2.51,1.31c-16.2-16.6-38.87-26.95-63.93-26.95c-49.12,0-89.08,39.69-89.08,88.47
		c0,48.78,39.96,88.46,89.08,88.46c13.4,0,26.11-2.97,37.52-8.26c1.25,2.28,2.94,4.36,5.09,6.1l60.66,49.13
		c-8.97,15.51-14.13,33.45-14.13,52.58c0,58.38,47.81,105.88,106.58,105.88c58.77,0,106.59-47.5,106.59-105.88
		C694.18,630.72,646.37,583.22,587.59,583.22z"/>
</g>
</svg>
